<svg xmlns="http://www.w3.org/2000/svg" xmlns:xlink="http://www.w3.org/1999/xlink" viewBox="0 0 1119.72 1044.7">
  <defs>
    <clipPath id="aaf354de-9278-461b-8385-8c9d31dd923d" transform="translate(-806.42)">
      <rect width="1920" height="1080" style="fill: none"/>
    </clipPath>
    <clipPath id="be25b0fd-9af1-40bb-9d32-fe91f90d0337" transform="translate(-806.42)">
      <rect x="1489.95" width="432.42" height="680" style="fill: none"/>
    </clipPath>
    <clipPath id="f8227799-ea91-4c45-b762-378f73278daf" transform="translate(-806.42)">
      <rect x="1426.79" width="495.58" height="680" style="fill: none"/>
    </clipPath>
    <clipPath id="a4020474-1d16-47c1-8d89-28bc8225e728" transform="translate(-806.42)">
      <rect x="1428.61" y="241.31" width="53.38" height="53.38" style="fill: none"/>
    </clipPath>
    <clipPath id="a2654f44-6f51-4428-bff5-44a9aae5dabe" transform="translate(-806.42)">
      <rect x="1660.25" y="151.24" width="53.38" height="53.38" style="fill: none"/>
    </clipPath>
    <clipPath id="adee82bb-5bd8-41ee-9ff9-bca717260253" transform="translate(-806.42)">
      <rect x="1792.96" y="500.33" width="53.38" height="53.38" style="fill: none"/>
    </clipPath>
    <clipPath id="b31bf3b2-ea21-46b0-955a-2c0ff0c49209" transform="translate(-806.42)">
      <rect x="1644.19" y="145.13" width="26.69" height="26.69" style="fill: none"/>
    </clipPath>
    <clipPath id="f807e54e-7090-4601-97ae-4dfce7a746bf" transform="translate(-806.42)">
      <rect x="1780" y="553.93" width="15.94" height="15.95" style="fill: none"/>
    </clipPath>
    <clipPath id="a4a9b645-7b03-4c6f-975d-8abe26557abb" transform="translate(-806.42)">
      <rect x="1482.43" y="250.84" width="424.97" height="319.04" style="fill: none"/>
    </clipPath>
    <clipPath id="b12697c4-5b32-4ed9-b65d-70e1d589ff4b" transform="translate(-806.42)">
      <rect x="1840.52" y="246.1" width="53.39" height="53.38" style="fill: none"/>
    </clipPath>
  </defs>
  <title>Asset 2</title>
  <g style="isolation: isolate">
    <g id="a1026a32-bc92-40df-a5a3-7b1d6fefb3d5" data-name="Layer 2">
      <g id="f109b322-430c-488a-97c1-39d403f856bb" data-name="Layer 1">
        <g style="clip-path: url(#aaf354de-9278-461b-8385-8c9d31dd923d)">
          <path d="M1668.47,826.8,1653,843.15a4.83,4.83,0,0,1-8.23-2.32l-11-51.65a5.94,5.94,0,0,1,8.49-6.53l54,27.36a3.37,3.37,0,0,1-.9,6.33l-15.06,2.85a7.11,7.11,0,0,1-6.07-1.71l-32.5-29.4,26.94,31.34a5.51,5.51,0,0,1-.18,7.38" transform="translate(-806.42)" style="fill: #d221f8"/>
          <path d="M1677.77,824.54l-12.3,12.92,3.48,4.83a3.37,3.37,0,0,0,6.06-1.41Z" transform="translate(-806.42)" style="fill: #d221f8"/>
          <path d="M1515,1043.23c-5.93-.84-11.91-2-18.29-3.58l.53-2.15c6.3,1.54,12.21,2.7,18.07,3.54l2.89.38,2.87.32-.22,2.21-2.77-.31c-1-.13-2.06-.26-3.08-.41m10.46-1.1c4.45.32,8.88.42,13.18.31l.06,2.21c-4.37.12-8.88,0-13.4-.31Zm-45.88-7.35.68-2.11,4.21,1.31-.64,2.12c-1.42-.43-2.84-.87-4.25-1.32m83,4.56c1.43-.35,2.84-.73,4.24-1.14l.62,2.13c-1.43.42-2.88.81-4.33,1.16Zm-118.43-17.48.8-2.07q6.2,2.41,12.41,4.78l-.79,2.07c-4.15-1.57-8.29-3.18-12.42-4.78m-26.86-10.44.8-2.07,22.73,8.84-.8,2.06ZM1579,1033.63a84.7,84.7,0,0,0,8.44-4.47,75.82,75.82,0,0,0,11.58-8.67l1.49,1.64a77.29,77.29,0,0,1-11.92,8.92,85,85,0,0,1-8.66,4.59ZM1400.67,1005l.8-2.06,4.13,1.6-.8,2.07Zm-35.13-13.65.8-2.07,12.4,4.82-.8,2.07ZM1352,986.06l.8-2.07,9.46,3.68-.8,2.06Zm250.25,31.4a81.5,81.5,0,0,0,8.41-10.06l1.81,1.28a83.54,83.54,0,0,1-8.64,10.33Zm26.25-25.73a92.75,92.75,0,0,0,24-.39l.33,2.2a95.38,95.38,0,0,1-24.6.4Zm-17.8-1.36.63-2.12c1.41.41,2.82.8,4.24,1.15l-.54,2.15c-1.45-.36-2.89-.76-4.33-1.18m46.14.22c2.52-.5,5-1.12,7.47-1.84,1.75-.52,3.49-1.1,5.16-1.71l.76,2.08c-1.71.63-3.49,1.22-5.29,1.75-2.5.74-5.08,1.38-7.66,1.9Zm-35.18-4.52c.49-1.38.93-2.77,1.34-4.17l2.13.63c-.42,1.44-.88,2.86-1.37,4.27Zm-44.65-13,1.37-1.74a97.9,97.9,0,0,0,10.87,7.38l-1.12,1.91a100.09,100.09,0,0,1-11.12-7.55m-19.78-21.27,1.84-1.22a88.65,88.65,0,0,0,15.93,18l-1.45,1.68a90.53,90.53,0,0,1-16.32-18.42m68.49,17.29.09-.68a78.61,78.61,0,0,0-.57-23.26l2.18-.39a80.36,80.36,0,0,1,.59,23.92l-.09.7Zm64.39,6c1.1-1,2.15-2,3.13-3l1.6,1.54c-1,1.07-2.12,2.12-3.26,3.13Zm10.64-13.54a63.94,63.94,0,0,0,6.22-21.73l.15-1.25,2.2.24-.15,1.28a66,66,0,0,1-6.45,22.47Zm-151.27-26.06,2.15-.57a39,39,0,0,0,1.33,4.1l-2.06.8a42,42,0,0,1-1.42-4.33m70.69-7.06,2-.9a73.52,73.52,0,0,1,4.3,12.78l-2.15.52a71.13,71.13,0,0,0-4.18-12.4m87.58.73c.07-2.7.08-5.44,0-8.16l2.22,0c.06,2.75,0,5.54,0,8.28-.05,1.7-.13,3.41-.24,5.12l-2.22-.15c.12-1.68.2-3.36.25-5m-154.55-17.89a32.72,32.72,0,0,1,10-9.37l1.15,1.89a30.53,30.53,0,0,0-9.28,8.73Zm49.62-4.63,1.26-1.83a44.09,44.09,0,0,1,3.6,2.77l-1.43,1.69c-1.09-.93-2.25-1.81-3.43-2.63m-35.59-6.85a32.2,32.2,0,0,1,6.68-2.06,37.62,37.62,0,0,1,18,1.14l-.65,2.12a35.38,35.38,0,0,0-16.89-1.08,29.88,29.88,0,0,0-6.21,1.92Zm137.32-7.19,2.17-.44q.45,2.19.84,4.38l-2.19.39c-.25-1.45-.53-2.89-.82-4.33m-11.68-35.47,2-.93a162.44,162.44,0,0,1,8.62,23l-2.13.62a161,161,0,0,0-8.5-22.65m-8.28-15.53,1.89-1.15c2.3,3.78,4.48,7.73,6.47,11.72l-2,1c-2-3.94-4.11-7.83-6.38-11.56" transform="translate(-806.42)" style="fill: #d221f8"/>
          <path d="M874.41,165.19,898.06,189a7.19,7.19,0,0,1-3.83,12.14l-77.36,14a8.85,8.85,0,0,1-9.35-12.93l43.13-79.17a5,5,0,0,1,9.39,1.63l3.56,22.55a10.56,10.56,0,0,1-2.81,9L815.57,203.3l47.86-38.71a8.19,8.19,0,0,1,11,.6" transform="translate(-806.42)" style="fill: #d221f8"/>
          <path d="M871.45,151.23l18.7,18.9,7.34-5a5,5,0,0,0-1.83-9.09Z" transform="translate(-806.42)" style="fill: #d221f8"/>
          <path d="M1160.36,537l-.5-.87c1.52-.87,3.05-1.79,4.53-2.72l.54.84c-1.5.95-3,1.87-4.57,2.75m13.66-9-.61-.8,1.59-1.21.61.79L1174,528m6.26-5-.65-.76c2.76-2.33,5.48-4.82,8.08-7.41l.7.71c-2.62,2.6-5.35,5.11-8.13,7.46m9.54-8.88-.71-.7c1.38-1.41,2.76-2.87,4.1-4.36l.74.67c-1.35,1.5-2.74,3-4.13,4.39M1201,501.21l-.79-.61c.41-.52.82-1.05,1.22-1.58l.79.6c-.4.54-.81,1.07-1.22,1.59m4.76-6.46-.82-.57c2.07-3,4.08-6.06,6-9.21l.86.52c-1.9,3.16-3.92,6.28-6,9.26m7-11-.86-.5c1-1.72,2-3.48,2.93-5.23l.88.48c-1,1.76-1.94,3.53-3,5.25m7.85-15.14-.91-.41c.28-.6.55-1.21.82-1.82l.91.4c-.27.62-.54,1.23-.82,1.83m3.17-7.37-.93-.38c1.36-3.36,2.63-6.82,3.79-10.29l1,.32c-1.17,3.49-2.45,7-3.81,10.35m4.43-12.26-1-.31c.61-1.9,1.2-3.83,1.74-5.73l1,.28c-.54,1.91-1.13,3.85-1.75,5.76m4.47-16.45-1-.22c.15-.65.29-1.3.43-1.95l1,.21c-.14.66-.28,1.31-.43,2m1.58-7.86-1-.18c.65-3.58,1.19-7.24,1.62-10.85l1,.12c-.43,3.63-1,7.3-1.62,10.91m1.84-12.91-1-.1c.21-2,.4-4,.55-6l1,.08c-.15,2-.33,4-.55,6m1.06-17-1,0c0-.66,0-1.33,0-2h1c0,.66,0,1.33,0,2m-1-8,0-1.22c-.11-3.22-.31-6.5-.57-9.73l1-.09c.27,3.25.46,6.54.58,9.79l0,1.22Zm-.79-12.94c-.18-2-.39-4-.63-5.95l1-.12c.24,2,.45,4,.63,6Zm-2.21-16.8c-.11-.66-.23-1.31-.34-2l1-.18c.12.66.23,1.32.35,2Zm-1.48-7.84c-.74-3.55-1.58-7.14-2.49-10.69l1-.25c.92,3.56,1.76,7.18,2.49,10.73Zm-3-12.62c-.51-1.92-1-3.87-1.61-5.77l1-.28c.56,1.91,1.11,3.86,1.62,5.79Zm-4.92-16.24c-.21-.63-.43-1.26-.65-1.89l1-.33c.22.63.43,1.27.65,1.9Zm-2.68-7.52c-1.27-3.39-2.63-6.82-4.06-10.21l.92-.38c1.43,3.4,2.8,6.84,4.07,10.24Zm-4.84-12.05c-.79-1.83-1.59-3.66-2.42-5.48l.91-.41q1.24,2.75,2.43,5.5Zm-7.14-15.39-.9-1.79.89-.45c.31.6.61,1.19.9,1.79Zm-3.66-7.11c-1.69-3.18-3.48-6.42-5.31-9.61l.86-.5c1.84,3.21,3.64,6.45,5.33,9.64Zm-6.32-11.34q-1.5-2.58-3.06-5.15l.85-.52q1.56,2.58,3.08,5.17Zm-8.91-14.45-1.09-1.67.83-.55c.37.56.74,1.12,1.1,1.68Zm-4.43-6.64c-2-3-4.17-6-6.32-9l.8-.59c2.17,3,4.3,6,6.35,9Zm-7.5-10.6c-1.18-1.61-2.38-3.21-3.58-4.8l.79-.6c1.21,1.59,2.41,3.2,3.6,4.81Zm-10.34-13.46c-.42-.52-.83-1-1.25-1.55l.77-.63,1.26,1.56Zm-5.06-6.19c-2.36-2.81-4.77-5.62-7.17-8.32l.75-.67c2.4,2.72,4.82,5.53,7.19,8.35Zm-8.5-9.82c-1.33-1.49-2.67-3-4-4.43l.73-.68q2,2.21,4.05,4.45Zm-11.61-12.39-1.4-1.42.71-.7,1.4,1.42Zm-5.66-5.63c-2.63-2.56-5.32-5.09-8-7.53l.68-.74c2.68,2.45,5.38,5,8,7.55Zm-9.47-8.87c-1.49-1.34-3-2.66-4.49-4l.66-.76c1.51,1.32,3,2.64,4.5,4Zm-12.91-11-1.55-1.25.62-.78,1.56,1.26Zm-264.5-3.18-.75-.66c1.32-1.51,2.69-3,4.07-4.45l.72.7c-1.37,1.43-2.73,2.91-4,4.41m258.23-1.75c-2.91-2.24-5.89-4.43-8.84-6.52l.58-.81c3,2.09,5.94,4.29,8.87,6.53Zm-252.8-4.1-.71-.7c2.56-2.6,5.28-5.13,8.06-7.54l.65.76c-2.76,2.38-5.45,4.9-8,7.48M1098,155.26c-1.64-1.15-3.29-2.27-5-3.38l.56-.83c1.66,1.11,3.32,2.24,5,3.39Zm-229.72-7.73-.62-.79c.53-.41,1.05-.83,1.58-1.23l.61.79c-.52.4-1.05.81-1.57,1.23M1083.79,146l-1.71-1,.51-.86c.58.34,1.15.69,1.72,1Zm-6.88-4c-3.19-1.8-6.44-3.56-9.66-5.21l.45-.89c3.24,1.66,6.5,3.42,9.7,5.24Zm-198.13-2-.55-.83c1.67-1.1,3.38-2.17,5.1-3.2l.51.86c-1.7,1-3.4,2.08-5.06,3.17m186.69-4.13c-1.79-.89-3.6-1.77-5.39-2.61l.43-.91c1.79.85,3.61,1.73,5.41,2.63Zm-179.91-.06-.51-.86c3.15-1.83,6.42-3.58,9.73-5.2l.44.9c-3.29,1.61-6.54,3.35-9.66,5.16m164.49-7-1.85-.75.37-.93,1.86.76Zm-149.41-.7-.41-.92,1.84-.8.39.92-1.82.8m142-2.22c-3.43-1.28-6.92-2.48-10.38-3.58l.31-1c3.47,1.1,7,2.31,10.42,3.6Zm-129.95-2.57-.33-1c1.88-.66,3.8-1.3,5.71-1.9l.3.95c-1.9.6-3.81,1.24-5.68,1.9m117.67-1.6c-1.9-.59-3.84-1.15-5.75-1.68l.27-1c1.92.53,3.86,1.1,5.77,1.68Zm-110.09-.88-.29-1c3.48-1,7.07-2,10.65-2.85l.23,1c-3.56.84-7.13,1.79-10.59,2.84m93.68-3.43L1012,117l.2-1,2,.42Zm-77.24-.68-.2-1,2-.38.18,1-1.95.38m69.41-.85c-3.58-.61-7.24-1.14-10.86-1.55l.12-1c3.64.41,7.31.94,10.91,1.56Zm-56.63-1.24-.12-1c2-.25,4-.47,6-.66l.1,1c-2,.19-4,.41-5.95.67m43.79-.52c-2-.2-4-.38-6-.52l.07-1c2,.14,4,.32,6,.52Zm-35.85-.33-.09-1c3.64-.31,7.35-.52,11-.62l0,1c-3.65.1-7.33.3-11,.61m18.93-.66-2,0v-1l2,0Z" transform="translate(-806.42)" style="fill: #d221f8"/>
          <path d="M1922.37,672.45V14.55A14.6,14.6,0,0,0,1907.82,0H1353.53c-8.31,22.15-13.52,45.4-13.1,70.66,1.27,77.05,54.63,142.84,110.57,195.84s119.15,102.65,151,172.8c18.88,41.53,25.38,87.7,26.68,133.3,1.08,38,284.11,71.37,293.46,107.4,0-8.27.18.45.18-7.55" transform="translate(-806.42)" style="fill: #662d91"/>
          <g style="mix-blend-mode: hard-light">
            <g style="clip-path: url(#be25b0fd-9af1-40bb-9d32-fe91f90d0337)">
              <path d="M1922.37,680V14.55A14.6,14.6,0,0,0,1907.82,0H1511.33a237.21,237.21,0,0,0-19.45,62.83c-7.27,47.63,6,99.47,40.46,133.15,17.31,16.92,38.91,28.61,59.07,42,82.82,55.08,143.37,142.71,165.58,239.67,10,43.74,12.5,88.92,22.36,132.69,6,26.7,128.57,46.45,142.84,69.64Z" transform="translate(-806.42)" style="fill: #662d91"/>
            </g>
          </g>
          <g style="mix-blend-mode: hard-light">
            <g style="clip-path: url(#f8227799-ea91-4c45-b762-378f73278daf)">
              <path d="M1922.37,680V0H1682.85a122.39,122.39,0,0,0-11,10.85c-30.55,34.32-38,82.63-54.86,125.38a289,289,0,0,1-51.23,84.17c-38.82,44.39-91.66,77.5-119.39,129.54-23,43.11-25.53,96.14-8.72,142s52.27,84.2,95.79,106.4c84.75,43.25,185.35,39.71,273.44,75.66,8.44,3.45,109.16,1.37,115.31,6Z" transform="translate(-806.42)" style="fill: #662d91"/>
            </g>
          </g>
          <circle cx="904" cy="349.46" r="190.98" style="fill: none;stroke: #fff;stroke-miterlimit: 10;stroke-width: 0.28299999237060547px"/>
          <circle cx="874.78" cy="370.47" r="244.8" style="fill: none;stroke: #fff;stroke-miterlimit: 10;stroke-width: 0.28299999237060547px"/>
          <g style="mix-blend-mode: hard-light">
            <g style="clip-path: url(#a4020474-1d16-47c1-8d89-28bc8225e728)">
              <path d="M1482,268a26.69,26.69,0,1,1-26.69-26.69A26.69,26.69,0,0,1,1482,268" transform="translate(-806.42)" style="fill: #662d91"/>
            </g>
          </g>
          <g style="mix-blend-mode: hard-light">
            <g style="clip-path: url(#a2654f44-6f51-4428-bff5-44a9aae5dabe)">
              <path d="M1713.63,177.93a26.69,26.69,0,1,1-26.69-26.69,26.69,26.69,0,0,1,26.69,26.69" transform="translate(-806.42)" style="fill: #662d91"/>
            </g>
          </g>
          <g style="mix-blend-mode: multiply">
            <g style="clip-path: url(#adee82bb-5bd8-41ee-9ff9-bca717260253)">
              <path d="M1846.34,527a26.69,26.69,0,1,1-26.69-26.69A26.69,26.69,0,0,1,1846.34,527" transform="translate(-806.42)" style="fill: #662d91"/>
            </g>
          </g>
          <g style="mix-blend-mode: color-burn">
            <g style="clip-path: url(#b31bf3b2-ea21-46b0-955a-2c0ff0c49209)">
              <path d="M1670.88,158.48a13.35,13.35,0,1,1-13.34-13.35,13.34,13.34,0,0,1,13.34,13.35" transform="translate(-806.42)" style="fill: #662d91"/>
            </g>
          </g>
          <g style="mix-blend-mode: color-burn">
            <g style="clip-path: url(#f807e54e-7090-4601-97ae-4dfce7a746bf)">
              <path d="M1795.94,561.91a8,8,0,1,1-8-8,8,8,0,0,1,8,8" transform="translate(-806.42)" style="fill: #662d91"/>
            </g>
          </g>
          <g style="opacity: 0.3000029921531677;mix-blend-mode: hard-light">
            <g style="clip-path: url(#a4a9b645-7b03-4c6f-975d-8abe26557abb)">
              <path d="M1802.93,506.78l.64-7.61a2.67,2.67,0,0,0,2.9-1.58l100.69-216.08a1.78,1.78,0,0,0-.94-2.63l-102.65-28s49.62,160-51,236.17l-269.7,33.27-.48,7.67L1597,569.88Z" transform="translate(-806.42)" style="fill: #662d91"/>
            </g>
          </g>
          <g style="mix-blend-mode: color-dodge">
            <g style="clip-path: url(#b12697c4-5b32-4ed9-b65d-70e1d589ff4b)">
              <path d="M1893.91,272.79a26.7,26.7,0,1,1-26.69-26.69,26.69,26.69,0,0,1,26.69,26.69" transform="translate(-806.42)" style="fill: #662d91"/>
            </g>
          </g>
        </g>
      </g>
    </g>
  </g>
</svg>
